<svg width="265" height="33" viewBox="0 0 265 33" fill="none" xmlns="http://www.w3.org/2000/svg">
<g clip-path="url(#clip0_794_1025)">
<path fill-rule="evenodd" clip-rule="evenodd" d="M29.3101 28.0763C22.8284 35.6515 11.9037 33.8345 7.8164 27.0454C4.05954 20.8052 7.63635 9.86734 16.2523 8.84082C-0.56461 16.3743 17.8101 36.8767 29.3101 28.0763Z" fill="#273039"/>
<path fill-rule="evenodd" clip-rule="evenodd" d="M16.508 8.52124C14.5715 6.65819 9.68051 4.32964 6.24204 5.77881C2.32491 7.42885 -1.65152 14.5968 3.31517 23.2061C-1.37486 11.615 8.78797 5.0037 16.508 8.52124Z" fill="#273039"/>
<path fill-rule="evenodd" clip-rule="evenodd" d="M11.2614 18.3657C21.9061 29.2322 30.7306 24.2788 33.719 18.3811C32.7243 22.4881 29.9555 27.3209 24.9351 28.2574C20.3746 29.1082 14.7591 27.288 11.2614 18.3657Z" fill="#273039"/>
<path fill-rule="evenodd" clip-rule="evenodd" d="M33.37 16.2044C31.1567 22.4874 22.5034 25.6416 14.7921 19.4035C30.2367 22.5577 33.6389 10.3979 30.1873 5.15234C33.0604 8.1934 34.8005 12.1457 33.37 16.2044Z" fill="#273039"/>
<path fill-rule="evenodd" clip-rule="evenodd" d="M28.9972 5.96134C30.9821 11.051 28.2847 18.3572 18.1208 18.3407C27.9817 12.8624 27.491 2.49542 17.9309 0C22.7823 0.05599 27.3856 1.83012 28.9972 5.96134Z" fill="#273039"/>
<path d="M44.4404 26.1801H51.4301C57.5915 26.1801 60.6385 22.3043 60.6385 16.5182C60.6385 10.744 57.5915 6.86816 51.4301 6.86816H44.4404V26.1801ZM48.4505 22.6397V10.3967H51.2291C54.7851 10.3967 56.4153 12.6148 56.4153 16.5182C56.4153 20.4216 54.7851 22.6397 51.2291 22.6397H48.4505Z" fill="#273039"/>
<path d="M74.6216 16.1038L82.1047 6.86816H77.2106L71.1443 14.4579H69.7944V6.86816H65.7847V26.1801H69.7944V17.9746H71.172L77.2106 26.1801H82.33L74.6216 16.1038Z" fill="#273039"/>
<path d="M95.4313 16.1038L102.915 6.86816H98.0207L91.9544 14.4579H90.6045V6.86816H86.5944V26.1801H90.6045V17.9746H91.9817L98.0207 26.1801H103.14L95.4313 16.1038Z" fill="#273039"/>
<path d="M127.082 7.74834C126.028 7.17603 124.595 6.86816 122.259 6.86816H115.909V26.1801H119.918V19.2573H122.259C124.623 19.2573 126.052 18.8824 127.11 18.1601C128.901 17.051 129.675 15.046 129.675 12.7332C129.675 10.4361 128.886 8.71137 127.082 7.74834ZM124.808 15.2355C124.157 15.7959 123.167 15.9025 121.695 15.9025H119.918V10.223H121.695C123.127 10.223 124.09 10.2901 124.769 10.8111C125.29 11.2255 125.637 11.9044 125.637 12.9898C125.637 14.0988 125.318 14.7934 124.808 15.2355Z" fill="#273039"/>
<path d="M147.386 26.1801H151.486L144.378 6.86816H139.472L132.364 26.1801H136.465L137.87 22.1977H145.981L147.386 26.1801ZM139.046 18.8429L141.931 10.6493L144.805 18.8429H139.046Z" fill="#273039"/>
<path d="M165.977 26.1801H170.721L165.574 18.6811C166.043 18.5469 166.442 18.389 166.806 18.1877C168.755 17.1576 169.545 15.2355 169.545 12.8161C169.545 10.5151 168.771 8.68374 166.884 7.68124C165.882 7.17603 164.587 6.86816 162.128 6.86816H155.778V26.1801H159.788V19.056H161.485L165.977 26.1801ZM159.788 10.223H161.564C163.115 10.223 163.983 10.3177 164.599 10.7835C165.175 11.2373 165.507 11.9872 165.507 13.0687C165.507 14.2053 165.175 14.9671 164.52 15.421C163.932 15.8354 163.092 15.9025 161.564 15.9025H159.788V10.223Z" fill="#273039"/>
<path d="M186.533 6.86816H173.366V10.3967H177.98V26.1801H181.946V10.3967H186.533V6.86816Z" fill="#273039"/>
<path d="M204.148 6.86816V20.5953L195.544 6.86816H190.958V26.1801H194.955V12.374L203.508 26.1801H208.146V6.86816H204.148Z" fill="#273039"/>
<path d="M225.734 10.3967V6.86816H214.533V26.1801H225.734V22.6397H218.57V18.2666H224.917V14.7816H218.57V10.3967H225.734Z" fill="#273039"/>
<path d="M241.453 26.1801H246.197L241.05 18.6811C241.52 18.5469 241.918 18.389 242.281 18.1877C244.232 17.1576 245.021 15.2355 245.021 12.8161C245.021 10.5151 244.247 8.68374 242.361 7.68124C241.358 7.17603 240.063 6.86816 237.605 6.86816H231.254V26.1801H235.264V19.056H236.961L241.453 26.1801ZM235.264 10.223H237.04C238.591 10.223 239.46 10.3177 240.075 10.7835C240.652 11.2373 240.983 11.9872 240.983 13.0687C240.983 14.2053 240.652 14.9671 239.997 15.421C239.408 15.8354 238.568 15.9025 237.04 15.9025H235.264V10.223Z" fill="#273039"/>
<path d="M257.237 26.4483C261.449 26.4483 264.44 24.3485 264.44 20.6741C264.44 16.7588 261.007 15.6497 258.078 14.7656C255.887 14.1105 253.989 13.6565 253.989 12.0384C253.989 10.5543 255.366 9.8755 256.985 9.8755C258.8 9.8755 260.099 10.7162 260.699 12.5751L264.334 11.6792C263.56 7.97707 260.138 6.59961 256.744 6.59961C252.868 6.59961 249.928 8.63223 249.928 12.1884C249.928 15.7957 252.959 16.8259 255.793 17.706C258.145 18.4283 260.284 18.9887 260.296 20.8872C260.312 22.4501 259.014 23.1724 257.305 23.1724C255.288 23.1724 253.788 22.1423 253.227 19.9242L249.257 20.8359C249.845 24.4551 253.082 26.4483 257.237 26.4483Z" fill="#273039"/>
</g>
<defs>
<clipPath id="clip0_794_1025">
<rect width="264" height="33" fill="white" transform="translate(0.836182)"/>
</clipPath>
</defs>
</svg>
