<svg width="212" height="49" viewBox="0 0 212 49" fill="none" xmlns="http://www.w3.org/2000/svg">
<g clip-path="url(#clip0_794_975)">
<path d="M66.878 34.7826L68.657 20.8802L67.729 21.0638L73.2447 30.8909L78.7335 21.0372L77.8024 20.8625L79.5817 34.7826H83.1104L80.5334 16.2422H77.752L73.2416 24.6889L68.7075 16.2422H65.923L63.3521 34.7826H66.878Z" fill="#23313C"/>
<path d="M94.6428 34.1053C95.6354 33.5027 96.4405 32.6361 96.9677 31.6025C97.5076 30.5457 97.7832 29.3741 97.7714 28.1877C97.7836 26.9918 97.5079 25.8106 96.9677 24.7432C96.4428 23.7025 95.6377 22.8285 94.6428 22.2197C93.5282 21.5635 92.2502 21.2359 90.9569 21.2751C89.6635 21.2359 88.3855 21.5635 87.2709 22.2197C86.2746 22.8277 85.4683 23.7017 84.9431 24.7432C84.4052 25.8113 84.1307 26.9922 84.1425 28.1877C84.1309 29.3736 84.4056 30.5449 84.9431 31.6025C85.4706 32.6369 86.2769 33.5037 87.2709 34.1053C88.3863 34.7593 89.664 35.0858 90.9569 35.0469C92.2499 35.0858 93.5274 34.7593 94.6428 34.1053ZM88.4155 31.185C87.7893 30.3145 87.4759 29.2584 87.5259 28.1877C87.4743 27.1031 87.7876 26.0323 88.4155 25.146C88.7144 24.7605 89.1021 24.4528 89.5456 24.2492C89.9891 24.0455 90.4753 23.9517 90.9629 23.9761C91.4509 23.9505 91.938 24.0437 92.3822 24.2475C92.8264 24.4512 93.2144 24.7595 93.5131 25.146C94.1062 25.9358 94.4027 26.9497 94.4027 28.1877C94.4529 29.2584 94.1396 30.3146 93.5131 31.185C93.2128 31.5689 92.8242 31.8747 92.3801 32.0763C91.9362 32.2779 91.4499 32.3693 90.9629 32.3429C90.4755 32.3691 89.9889 32.2776 89.5445 32.0759C89.0999 31.8743 88.7107 31.5688 88.4096 31.185H88.4155Z" fill="#23313C"/>
<path d="M102.81 34.7828V24.4168L102.199 26.0398C102.522 25.4768 102.95 24.9803 103.459 24.5766C103.994 24.1937 104.643 24.0009 105.301 24.0288C106.228 24.0288 106.898 24.325 107.311 24.9172C107.72 25.5096 107.928 26.4218 107.928 27.6598V34.7828H111.214V27.3785C111.214 25.5876 110.803 24.1294 109.983 23.004C109.163 21.8786 107.902 21.3158 106.202 21.3158C105.361 21.2971 104.526 21.4735 103.764 21.8312C103.119 22.1402 102.513 22.5271 101.962 22.9833L102.73 23.9902L102.596 21.526H99.53V34.7828H102.81Z" fill="#23313C"/>
<path d="M122.563 34.7414C123.213 34.5753 123.845 34.34 124.445 34.0395L124.288 31.2583C123.711 31.5926 123.098 31.8571 122.458 32.0463C121.76 32.2491 121.035 32.3488 120.308 32.3425C119.679 32.3468 119.055 32.226 118.473 31.987C117.902 31.7465 117.404 31.3604 117.029 30.8674C116.603 30.2805 116.335 29.5942 116.252 28.8741H124.815C124.885 28.5701 124.939 28.2626 124.976 27.9532C125.012 27.6582 125.029 27.3616 125.029 27.0646C125.04 26.0688 124.824 25.0836 124.391 24.1858C123.972 23.3199 123.31 22.5943 122.485 22.0978C121.516 21.5485 120.414 21.2789 119.3 21.3188C118.059 21.2792 116.833 21.6036 115.774 22.2518C114.828 22.8558 114.068 23.7111 113.58 24.7219C113.08 25.7893 112.825 26.9548 112.833 28.1331C112.841 29.3117 113.113 30.4735 113.627 31.5338C114.163 32.5936 114.994 33.4761 116.021 34.075C117.084 34.7166 118.417 35.0376 120.018 35.0376C120.875 35.0503 121.731 34.9507 122.563 34.7414ZM117.299 24.7693C117.563 24.515 117.878 24.3179 118.222 24.1905C118.566 24.0631 118.934 24.0081 119.3 24.0289C119.804 24.0021 120.303 24.1461 120.715 24.4375C121.053 24.6994 121.312 25.0502 121.462 25.4504C121.609 25.8334 121.686 26.2398 121.687 26.6499H116.332C116.464 25.9427 116.8 25.289 117.299 24.7693Z" fill="#23313C"/>
<path d="M130.915 41.1892L139.22 21.5381H135.557L132.111 30.0649L128.715 21.5381H125.056L130.572 33.8944L127.626 41.1774L130.915 41.1892Z" fill="#23313C"/>
<path d="M149.589 34.7208C150.406 34.4901 151.163 34.086 151.81 33.5361C152.339 33.0775 152.752 32.4986 153.011 31.8479C153.254 31.2189 153.378 30.5498 153.376 29.8754C153.41 28.9269 153.158 27.9899 152.653 27.1862C152.114 26.4112 151.392 25.7799 150.552 25.3469C149.483 24.7823 148.359 24.3296 147.195 23.9963C146.331 23.7209 145.597 23.4574 144.995 23.1996C144.477 23.0002 144.01 22.6864 143.631 22.2815C143.307 21.8851 143.141 21.383 143.165 20.8718C143.143 20.5175 143.223 20.1642 143.392 19.8524C143.562 19.5407 143.817 19.2833 144.127 19.1095C144.905 18.7065 145.776 18.5144 146.653 18.5527C147.603 18.5515 148.552 18.6761 149.47 18.9229C150.482 19.2076 151.46 19.6051 152.382 20.1076L152.679 17.0866C151.848 16.7402 150.989 16.459 150.113 16.2456C149.032 15.9799 147.918 15.8496 146.803 15.8576C145.544 15.8221 144.289 16.05 143.121 16.5269C142.211 16.8991 141.429 17.5292 140.873 18.3395C140.359 19.1323 140.094 20.0606 140.111 21.005C140.067 21.9545 140.327 22.8933 140.854 23.6854C141.372 24.3895 142.052 24.9594 142.837 25.3469C143.716 25.7938 144.633 26.1663 145.574 26.4606C146.452 26.7199 147.317 27.0265 148.162 27.3786C148.741 27.6077 149.26 27.9653 149.681 28.4241C150.028 28.8675 150.205 29.4197 150.182 29.982C150.207 30.3509 150.131 30.7198 149.963 31.0492C149.794 31.3787 149.54 31.6567 149.228 31.8538C148.449 32.2882 147.562 32.4936 146.67 32.4461C145.904 32.4456 145.139 32.3612 144.39 32.1944C143.664 32.0327 142.947 31.825 142.246 31.5725C141.627 31.3475 141.019 31.0905 140.426 30.8024L140.052 33.8945C140.58 34.1296 141.124 34.3275 141.681 34.4868C142.393 34.6926 143.117 34.8539 143.851 34.9696C144.614 35.0976 145.389 35.162 146.164 35.1621C147.32 35.1856 148.476 35.0369 149.589 34.7208Z" fill="#23313C"/>
<path d="M160.27 34.7826L162.988 25.6012L165.705 34.7826H168.41L172.322 21.7007H169.35L166.939 31.578L164.284 22.0323H161.702L159.033 31.578L156.634 21.7007H153.666L157.55 34.7826H160.27Z" fill="#23313C"/>
<path d="M176.432 34.7826V21.6976H173.666V34.7826H176.432ZM176.432 19.1565V16.2422H173.666V19.1535L176.432 19.1565Z" fill="#23313C"/>
<path d="M185.726 35.0457L185.962 32.8067H185.229C184.679 32.8249 184.128 32.7802 183.588 32.6734C183.429 32.6408 183.282 32.5627 183.168 32.4486C183.051 32.3343 182.972 32.1893 182.937 32.0308C182.831 31.4887 182.786 30.9362 182.805 30.384V23.9067H186.012V21.6973H182.795V18.3208L180.022 18.617V21.7031H178.193L177.943 23.9127H180.019V31.7938C180.019 32.3339 180.14 32.8673 180.374 33.3546C180.619 33.861 181.004 34.285 181.488 34.5748C182.095 34.9173 182.786 35.0826 183.481 35.0516L185.726 35.0457Z" fill="#23313C"/>
<path d="M195.65 34.7823C196.211 34.6505 196.749 34.4359 197.245 34.1457L196.95 31.8681C196.461 32.1215 195.947 32.3202 195.416 32.4604C194.879 32.6064 194.324 32.6801 193.768 32.6796C192.394 32.6796 191.353 32.2649 190.635 31.4327C189.894 30.5286 189.513 29.3837 189.562 28.2162C189.562 26.8657 189.927 25.7926 190.656 24.9969C191.386 24.2011 192.436 23.8062 193.806 23.8122C194.359 23.8107 194.912 23.8794 195.45 24.0165C195.959 24.1461 196.456 24.3257 196.931 24.5527L197.261 22.2247C196.757 21.9681 196.223 21.7741 195.671 21.6472C195.028 21.4968 194.369 21.4232 193.709 21.428C192.126 21.428 190.823 21.7331 189.797 22.3433C188.801 22.9179 188.003 23.7786 187.504 24.8132C186.988 25.8982 186.731 27.0867 186.748 28.2873C186.732 29.4644 186.995 30.6287 187.516 31.6845C188.027 32.7014 188.821 33.5496 189.804 34.1279C190.939 34.7686 192.229 35.0861 193.534 35.0459C194.248 35.0507 194.96 34.9621 195.65 34.7823Z" fill="#23313C"/>
<path d="M201.768 34.7823V24.4637L201.29 26.0542C201.63 25.4101 202.112 24.8527 202.702 24.4252C203.307 24.0083 204.028 23.7946 204.763 23.815C205.77 23.815 206.509 24.1349 206.978 24.7747C207.446 25.4144 207.681 26.4095 207.681 27.7602V34.7823H210.451V27.4965C210.472 26.4163 210.287 25.342 209.907 24.3304C209.585 23.4707 209.007 22.7299 208.25 22.2069C207.409 21.6706 206.423 21.405 205.427 21.4456C204.539 21.4149 203.658 21.6192 202.874 22.0381C202.174 22.4391 201.533 22.9378 200.973 23.519L201.768 23.7974V14.9121H198.982V34.7823H201.768Z" fill="#23313C"/>
<path d="M47.4976 22.5055H43.0322H35.9471L34.1738 11.8354H30.1952L25.2855 25.9931L27.1817 31.7027L31.7401 20.275L34.3134 34.8517H37.9999L36.6116 26.4882H43.0365C42.6634 30.0431 41.2877 33.4186 39.07 36.2216C36.8521 39.0246 33.8834 41.1397 30.5098 42.3204C27.1363 43.5012 23.4965 43.6989 20.0148 42.8906C16.5331 42.0824 13.3528 40.3013 10.8443 37.7552L9.1217 37.5773L7.40332 37.4461L7.53453 39.1688L7.73346 40.938L7.78425 40.993C11.0444 44.2515 15.1975 46.4701 19.7185 47.3685C24.2395 48.2668 28.9254 47.8045 33.1837 46.0401C37.4419 44.2756 41.0814 41.2881 43.642 37.4554C46.2026 33.6228 47.5694 29.1168 47.5695 24.5075C47.5822 23.8345 47.5483 23.1658 47.4976 22.5055Z" fill="#273039"/>
<path d="M40.8147 9.66019L40.6285 7.89948C37.3558 4.67065 33.2012 2.48193 28.6876 1.60876C24.174 0.735595 19.5028 1.21699 15.2621 2.99235C11.0214 4.76773 7.40057 7.75776 4.85521 11.5862C2.30987 15.4146 0.953754 19.9103 0.957527 24.5077C0.957527 25.1765 0.987157 25.8367 1.04218 26.497H12.2328L10.7811 34.9196H14.5057L17.0959 20.2752L22.5771 34.9196L26.2677 34.8815L18.662 11.8103H14.7639L12.9185 22.5227H5.5032C5.87883 18.9931 7.24284 15.6413 9.4384 12.8525C11.634 10.0636 14.5719 7.95084 17.9147 6.75718C21.2574 5.56352 24.869 5.33737 28.3346 6.10472C31.8 6.87208 34.9786 8.60178 37.5049 11.095L39.2275 11.2728L40.9459 11.404L40.8147 9.66019Z" fill="#273039"/>
</g>
<defs>
<clipPath id="clip0_794_975">
<rect width="210.7" height="49" fill="white" transform="translate(0.95752)"/>
</clipPath>
</defs>
</svg>
