<svg width="180" height="46" viewBox="0 0 180 46" fill="none" xmlns="http://www.w3.org/2000/svg">
<path d="M62.1176 11.3452V28.4463C62.1176 30.3497 61.5322 31.8725 60.3615 33.0128C59.1908 34.1531 57.6457 34.7224 55.7244 34.7224C53.8031 34.7224 52.2246 34.1408 51.0539 32.9793C49.8832 31.8179 49.2979 30.2281 49.2979 28.2136H52.3107C52.3318 29.3434 52.6254 30.2616 53.1879 30.9701C53.7504 31.6786 54.5959 32.0329 55.7209 32.0329C56.8459 32.0329 57.6861 31.6962 58.2381 31.0195C58.79 30.3444 59.066 29.4861 59.066 28.4463V11.3452H62.1123H62.1176Z" fill="#273039"/>
<path d="M77.9485 11.3452V25.9894C77.9485 28.048 78.4512 29.576 79.4549 30.5718C80.4586 31.5676 81.8561 32.0664 83.6438 32.0664C85.4315 32.0664 86.7956 31.5676 87.7993 30.5718C88.803 29.576 89.3057 28.048 89.3057 25.9894V11.3452H92.3186V25.9559C92.3186 27.8823 91.9319 29.5038 91.1602 30.8203C90.3868 32.1369 89.3444 33.1168 88.0313 33.7583C86.7182 34.3999 85.2434 34.7206 83.6104 34.7206C81.9774 34.7206 80.5026 34.3999 79.1895 33.7583C77.8764 33.1168 76.8375 32.1369 76.0764 30.8203C75.3153 29.5038 74.9338 27.8823 74.9338 25.9559V11.3452H77.9467H77.9485Z" fill="#273039"/>
<path d="M122.458 34.4895H119.445L107.323 16.0613V34.4895H104.31V11.3115H107.323L119.445 29.708V11.3115H122.458V34.4895Z" fill="#273039"/>
<path d="M137.494 11.3452V25.9894C137.494 28.048 137.997 29.576 139.001 30.5718C140.004 31.5676 141.402 32.0664 143.19 32.0664C144.977 32.0664 146.341 31.5676 147.345 30.5718C148.349 29.576 148.851 28.048 148.851 25.9894V11.3452H151.864V25.9559C151.864 27.8823 151.478 29.5038 150.706 30.8203C149.933 32.1369 148.89 33.1168 147.577 33.7583C146.264 34.3999 144.789 34.7206 143.156 34.7206C141.523 34.7206 140.048 34.3999 138.735 33.7583C137.422 33.1168 136.383 32.1369 135.622 30.8203C134.861 29.5038 134.48 27.8823 134.48 25.9559V11.3452H137.493H137.494Z" fill="#273039"/>
<path d="M167.084 33.9082C165.879 33.3654 164.936 32.6128 164.252 31.6505C163.566 30.6882 163.213 29.5744 163.192 28.3125H166.405C166.516 29.3981 166.962 30.3111 167.746 31.0513C168.53 31.7933 169.673 32.1634 171.174 32.1634C172.675 32.1634 173.74 31.8039 174.568 31.0848C175.396 30.3657 175.811 29.4404 175.811 28.3125C175.811 27.4277 175.569 26.7086 175.082 26.1534C174.596 25.6 173.988 25.1788 173.261 24.8915C172.533 24.6043 171.55 24.2941 170.313 23.961C168.789 23.5626 167.569 23.1643 166.653 22.766C165.737 22.3677 164.953 21.742 164.301 20.889C163.649 20.0377 163.324 18.8921 163.324 17.4522C163.324 16.1903 163.644 15.0729 164.283 14.0983C164.923 13.1236 165.823 12.3711 166.983 11.8406C168.142 11.3101 169.472 11.0439 170.974 11.0439C173.137 11.0439 174.909 11.5868 176.289 12.6707C177.669 13.7564 178.448 15.1945 178.624 16.9869H175.312C175.201 16.1022 174.737 15.3214 173.921 14.6464C173.104 13.9714 172.023 13.633 170.677 13.633C169.418 13.633 168.391 13.959 167.597 14.6129C166.802 15.2668 166.405 16.1797 166.405 17.3518C166.405 18.1942 166.642 18.8798 167.117 19.4103C167.592 19.9408 168.177 20.3462 168.873 20.6229C169.569 20.8996 170.546 21.2151 171.803 21.5693C173.327 21.9905 174.553 22.4047 175.479 22.8154C176.405 23.226 177.202 23.857 177.864 24.7082C178.527 25.5613 178.857 26.7174 178.857 28.1785C178.857 29.3082 178.559 30.3692 177.963 31.3668C177.367 32.3626 176.483 33.1715 175.314 33.7902C174.143 34.4105 172.763 34.7207 171.174 34.7207C169.585 34.7207 168.288 34.4493 167.084 33.9065V33.9082Z" fill="#273039"/>
<path d="M31.9113 36.8472V7.48476H29.0514C28.9248 7.49357 27.0633 7.60461 24.5039 8.403V2.14453H21.6439C21.433 2.15687 16.4215 2.45649 11.3713 5.73465C6.7043 8.76078 1.14258 14.984 1.14258 27.434V43.8565H3.7916V27.434C3.7916 18.4472 6.79394 11.9173 12.716 8.02584C16.9998 5.2112 21.3732 4.82875 21.7564 4.80055H21.8549V9.40583C20.8582 9.85174 19.8193 10.3999 18.7787 11.0749C14.1135 14.1028 8.55 20.326 8.55 32.7742V43.4881H31.7426V40.8321H11.199V37.7514H24.5039V11.2071C26.993 10.3258 28.916 10.1584 29.1639 10.1408H29.2623V36.8455H31.9113V36.8472Z" fill="#273039"/>
</svg>
